<svg width="74" height="96" viewBox="0 0 74 96" fill="none" xmlns="http://www.w3.org/2000/svg">
<path d="M18.5 45.3333V40H55.5V45.3333H18.5ZM18.5 24V18.6667H55.5V24H18.5ZM5.28571 61.3333H44.9286C47.0781 61.3333 49.0514 61.8044 50.8486 62.7467C52.6422 63.6853 54.1856 65.0062 55.4789 66.7093L68.7143 84.0427V8.61867C68.7143 7.65867 68.4095 6.87111 67.7998 6.256C67.1902 5.64089 66.4115 5.33333 65.4636 5.33333H8.53643C7.58852 5.33333 6.80976 5.64089 6.20014 6.256C5.59052 6.87111 5.28571 7.65867 5.28571 8.61867V61.3333ZM8.54171 90.6667H67.0493L51.3243 69.9573C50.5244 68.9049 49.58 68.0924 48.4911 67.52C47.4058 66.9511 46.2183 66.6667 44.9286 66.6667H5.28571V87.3867C5.28571 88.3431 5.59052 89.1289 6.20014 89.744C6.80976 90.3591 7.59029 90.6667 8.54171 90.6667ZM65.4636 96H8.53643C6.105 96 4.07528 95.1787 2.44728 93.536C0.819285 91.8933 0.00352381 89.8435 0 87.3867V8.61333C0 6.16 0.815761 4.112 2.44728 2.46933C4.07881 0.826667 6.11029 0.00355555 8.54171 0H65.4636C67.895 0 69.9265 0.823111 71.558 2.46933C73.1895 4.11556 74.0035 6.16533 74 8.61867V87.3867C74 89.84 73.186 91.8898 71.558 93.536C69.93 95.1822 67.902 96.0035 65.4636 96Z" fill="#AEB3C1"/>
</svg>
